<?xml version="1.0" standalone="no"?>
<!DOCTYPE svg PUBLIC "-//W3C//DTD SVG 20010904//EN"
 "http://www.w3.org/TR/2001/REC-SVG-20010904/DTD/svg10.dtd">
<svg version="1.0" xmlns="http://www.w3.org/2000/svg"
 width="554.000000pt" height="550.000000pt" viewBox="0 0 554.000000 550.000000"
 preserveAspectRatio="xMidYMid meet">

<g transform="translate(0.000000,550.000000) scale(0.100000,-0.100000)"
fill="#000000" stroke="none">
<path d="M0 2750 l0 -2750 2770 0 2770 0 0 2750 0 2750 -2770 0 -2770 0 0
-2750z m3120 2676 c603 -86 1126 -345 1549 -767 428 -429 686 -955 772 -1579
20 -142 17 -535 -5 -685 -67 -459 -231 -868 -493 -1226 l-62 -86 165 -307 c92
-171 163 -313 160 -321 -5 -13 -79 -15 -529 -15 l-524 0 -134 -69 c-302 -157
-581 -244 -929 -292 -125 -17 -525 -17 -650 0 -349 48 -630 136 -928 292
l-133 69 -545 0 c-461 0 -545 2 -550 14 -3 8 71 157 165 331 94 174 171 320
171 325 0 5 -42 71 -92 147 -238 354 -379 731 -439 1173 -27 194 -16 579 22
790 147 820 660 1525 1389 1913 333 177 651 269 1075 311 82 8 444 -4 545 -18z"/>
<path d="M2570 5394 c-25 -2 -109 -13 -188 -24 -804 -114 -1517 -605 -1925
-1325 -375 -663 -439 -1488 -172 -2211 83 -225 322 -649 365 -649 10 0 389
695 1046 1915 770 1429 1036 1915 1049 1915 14 0 279 -485 1047 -1910 566
-1050 1036 -1923 1045 -1940 l16 -29 29 34 c46 56 134 191 198 307 334 600
418 1330 230 1997 -133 473 -409 916 -775 1245 -389 349 -856 569 -1380 651
-126 20 -474 34 -585 24z"/>
<path d="M2734 4918 c-5 -7 -467 -863 -1027 -1903 -872 -1620 -1016 -1893
-1007 -1910 17 -31 186 -212 274 -293 105 -98 190 -165 315 -251 l104 -71
1372 0 1371 0 105 71 c190 129 376 293 522 461 l58 66 -1027 1909 c-565 1049
-1033 1914 -1039 1921 -11 12 -14 12 -21 0z"/>
<path d="M507 787 c-81 -151 -147 -279 -147 -285 0 -9 117 -12 460 -12 253 0
460 4 460 8 0 5 -34 32 -77 62 -156 109 -327 264 -472 428 -35 39 -67 72 -70
72 -4 0 -73 -123 -154 -273z"/>
<path d="M4765 949 c-93 -106 -264 -261 -402 -362 -62 -45 -112 -85 -112 -89
-1 -9 873 -11 881 -3 8 8 -275 534 -287 535 -5 0 -41 -36 -80 -81z"/>
<path d="M1510 431 c0 -9 179 -95 295 -141 172 -68 424 -132 635 -161 145 -20
537 -18 680 4 226 35 430 88 610 159 110 43 290 130 290 140 0 4 -565 8 -1255
8 -690 0 -1255 -4 -1255 -9z"/>
</g>
</svg>
